<svg width="47" height="38" viewBox="0 0 47 38" fill="none" xmlns="http://www.w3.org/2000/svg">
<path d="M21.176 24.008C21.784 24.008 22.088 24.776 22.088 26.312C22.088 27.848 21.8 29.224 21.224 30.44C20.648 31.656 19.944 32.6 19.112 33.272C18.312 33.944 17.4 34.488 16.376 34.904C12.952 36.408 9.752 36.376 6.776 34.808C5.272 34.008 4.12 33.064 3.32 31.976C2.52 30.856 1.88 29.528 1.4 27.992C0.664 25.688 0.296 23.272 0.296 20.744C0.296 18.216 0.536 15.848 1.016 13.64C1.496 11.432 2.232 9.336 3.224 7.352C4.216 5.336 5.624 3.72 7.448 2.504C9.272 1.288 11.384 0.679998 13.784 0.679998C14.808 0.679998 15.864 0.855998 16.952 1.208C18.072 1.528 18.984 1.944 19.688 2.456C20.392 2.936 21.016 3.688 21.56 4.712C22.104 5.736 22.376 6.936 22.376 8.312C22.376 9.784 22.024 11.112 21.32 12.296C21 12.84 20.488 13.336 19.784 13.784C19.08 14.2 18.248 14.408 17.288 14.408C15.816 14.408 14.776 13.752 14.168 12.44C13.912 11.928 13.784 11.368 13.784 10.76C13.784 10.152 13.992 9.8 14.408 9.704C14.856 9.576 15.272 9.224 15.656 8.648C16.04 8.072 16.232 7.4 16.232 6.632C16.232 6.024 16.072 5.496 15.752 5.048C15.144 4.248 14.264 3.848 13.112 3.848C11.96 3.848 10.904 4.376 9.944 5.432C9.016 6.488 8.312 7.816 7.832 9.416C6.872 12.616 6.392 15.56 6.392 18.248C6.392 20.936 6.76 23.096 7.496 24.728C8.392 26.744 9.528 28.088 10.904 28.76C11.768 29.176 12.76 29.384 13.88 29.384C15.768 29.384 17.464 28.536 18.968 26.84C19.608 26.168 20.136 25.368 20.552 24.44C20.712 24.152 20.92 24.008 21.176 24.008ZM45.4573 24.008C46.0653 24.008 46.3693 24.776 46.3693 26.312C46.3693 27.848 46.0813 29.224 45.5053 30.44C44.9293 31.656 44.2253 32.6 43.3933 33.272C42.5933 33.944 41.6813 34.488 40.6573 34.904C37.2333 36.408 34.0333 36.376 31.0573 34.808C29.5533 34.008 28.4013 33.064 27.6013 31.976C26.8013 30.856 26.1613 29.528 25.6813 27.992C24.9453 25.688 24.5773 23.272 24.5773 20.744C24.5773 18.216 24.8173 15.848 25.2973 13.64C25.7773 11.432 26.5133 9.336 27.5053 7.352C28.4973 5.336 29.9053 3.72 31.7293 2.504C33.5533 1.288 35.6653 0.679998 38.0653 0.679998C39.0893 0.679998 40.1453 0.855998 41.2333 1.208C42.3533 1.528 43.2653 1.944 43.9693 2.456C44.6733 2.936 45.2973 3.688 45.8413 4.712C46.3853 5.736 46.6573 6.936 46.6573 8.312C46.6573 9.784 46.3053 11.112 45.6013 12.296C45.2813 12.84 44.7693 13.336 44.0653 13.784C43.3613 14.2 42.5293 14.408 41.5693 14.408C40.0973 14.408 39.0573 13.752 38.4493 12.44C38.1933 11.928 38.0653 11.368 38.0653 10.76C38.0653 10.152 38.2733 9.8 38.6893 9.704C39.1373 9.576 39.5533 9.224 39.9373 8.648C40.3213 8.072 40.5133 7.4 40.5133 6.632C40.5133 6.024 40.3533 5.496 40.0333 5.048C39.4253 4.248 38.5453 3.848 37.3932 3.848C36.2413 3.848 35.1853 4.376 34.2253 5.432C33.2973 6.488 32.5933 7.816 32.1133 9.416C31.1533 12.616 30.6733 15.56 30.6733 18.248C30.6733 20.936 31.0413 23.096 31.7773 24.728C32.6733 26.744 33.8093 28.088 35.1853 28.76C36.0493 29.176 37.0413 29.384 38.1613 29.384C40.0493 29.384 41.7453 28.536 43.2493 26.84C43.8893 26.168 44.4173 25.368 44.8333 24.44C44.9933 24.152 45.2013 24.008 45.4573 24.008Z" fill="white"/>
</svg>
